<mxfile host="app.diagrams.net" modified="2023-12-29T07:38:17.354Z" agent="Mozilla/5.0 (X11; Linux x86_64; rv:121.0) Gecko/20100101 Firefox/121.0" etag="gVdLJUlK7uDomDa-0HYZ" version="22.1.15" type="github">
  <diagram id="C5RBs43oDa-KdzZeNtuy" name="Page-1">
    <mxGraphModel dx="1072" dy="4233" grid="1" gridSize="5" guides="1" tooltips="1" connect="1" arrows="1" fold="1" page="1" pageScale="1" pageWidth="4681" pageHeight="3300" math="0" shadow="0">
      <root>
        <mxCell id="WIyWlLk6GJQsqaUBKTNV-0" />
        <mxCell id="WIyWlLk6GJQsqaUBKTNV-1" parent="WIyWlLk6GJQsqaUBKTNV-0" />
        <mxCell id="6BMEeow9DPI3-waNV0ue-23" value="webapp.py" style="swimlane;fontStyle=0;childLayout=stackLayout;horizontal=1;startSize=30;horizontalStack=0;resizeParent=1;resizeParentMax=0;resizeLast=0;collapsible=1;marginBottom=0;whiteSpace=wrap;html=1;fontSize=16;" parent="WIyWlLk6GJQsqaUBKTNV-1" vertex="1">
          <mxGeometry x="40" y="25" width="230" height="660" as="geometry" />
        </mxCell>
        <mxCell id="6BMEeow9DPI3-waNV0ue-28" value="code_highlighter" style="text;strokeColor=none;fillColor=none;align=left;verticalAlign=middle;spacingLeft=4;spacingRight=4;overflow=hidden;points=[[0,0.5],[1,0.5]];portConstraint=eastwest;rotatable=0;whiteSpace=wrap;html=1;fontSize=16;" parent="6BMEeow9DPI3-waNV0ue-23" vertex="1">
          <mxGeometry y="30" width="230" height="30" as="geometry" />
        </mxCell>
        <mxCell id="6BMEeow9DPI3-waNV0ue-29" value="get_result_template" style="text;strokeColor=none;fillColor=none;align=left;verticalAlign=middle;spacingLeft=4;spacingRight=4;overflow=hidden;points=[[0,0.5],[1,0.5]];portConstraint=eastwest;rotatable=0;whiteSpace=wrap;html=1;fontSize=16;" parent="6BMEeow9DPI3-waNV0ue-23" vertex="1">
          <mxGeometry y="60" width="230" height="30" as="geometry" />
        </mxCell>
        <mxCell id="6BMEeow9DPI3-waNV0ue-30" value="get_favicon_or_logo" style="text;strokeColor=none;fillColor=none;align=left;verticalAlign=middle;spacingLeft=4;spacingRight=4;overflow=hidden;points=[[0,0.5],[1,0.5]];portConstraint=eastwest;rotatable=0;whiteSpace=wrap;html=1;fontSize=16;" parent="6BMEeow9DPI3-waNV0ue-23" vertex="1">
          <mxGeometry y="90" width="230" height="30" as="geometry" />
        </mxCell>
        <mxCell id="6BMEeow9DPI3-waNV0ue-31" value="custom_url_for" style="text;strokeColor=none;fillColor=none;align=left;verticalAlign=middle;spacingLeft=4;spacingRight=4;overflow=hidden;points=[[0,0.5],[1,0.5]];portConstraint=eastwest;rotatable=0;whiteSpace=wrap;html=1;fontSize=16;" parent="6BMEeow9DPI3-waNV0ue-23" vertex="1">
          <mxGeometry y="120" width="230" height="30" as="geometry" />
        </mxCell>
        <mxCell id="6BMEeow9DPI3-waNV0ue-33" value="image_proxify" style="text;strokeColor=none;fillColor=none;align=left;verticalAlign=middle;spacingLeft=4;spacingRight=4;overflow=hidden;points=[[0,0.5],[1,0.5]];portConstraint=eastwest;rotatable=0;whiteSpace=wrap;html=1;fontSize=16;" parent="6BMEeow9DPI3-waNV0ue-23" vertex="1">
          <mxGeometry y="150" width="230" height="30" as="geometry" />
        </mxCell>
        <mxCell id="6BMEeow9DPI3-waNV0ue-37" value="get_client_settings" style="text;strokeColor=none;fillColor=none;align=left;verticalAlign=middle;spacingLeft=4;spacingRight=4;overflow=hidden;points=[[0,0.5],[1,0.5]];portConstraint=eastwest;rotatable=0;whiteSpace=wrap;html=1;fontSize=16;" parent="6BMEeow9DPI3-waNV0ue-23" vertex="1">
          <mxGeometry y="180" width="230" height="30" as="geometry" />
        </mxCell>
        <mxCell id="6BMEeow9DPI3-waNV0ue-52" value="render" style="text;strokeColor=none;fillColor=none;align=left;verticalAlign=middle;spacingLeft=4;spacingRight=4;overflow=hidden;points=[[0,0.5],[1,0.5]];portConstraint=eastwest;rotatable=0;whiteSpace=wrap;html=1;fontSize=16;" parent="6BMEeow9DPI3-waNV0ue-23" vertex="1">
          <mxGeometry y="210" width="230" height="30" as="geometry" />
        </mxCell>
        <mxCell id="6BMEeow9DPI3-waNV0ue-53" value="pre_request" style="text;strokeColor=none;fillColor=none;align=left;verticalAlign=middle;spacingLeft=4;spacingRight=4;overflow=hidden;points=[[0,0.5],[1,0.5]];portConstraint=eastwest;rotatable=0;whiteSpace=wrap;html=1;fontSize=16;" parent="6BMEeow9DPI3-waNV0ue-23" vertex="1">
          <mxGeometry y="240" width="230" height="30" as="geometry" />
        </mxCell>
        <mxCell id="6BMEeow9DPI3-waNV0ue-55" value="post_request" style="text;strokeColor=none;fillColor=none;align=left;verticalAlign=middle;spacingLeft=4;spacingRight=4;overflow=hidden;points=[[0,0.5],[1,0.5]];portConstraint=eastwest;rotatable=0;whiteSpace=wrap;html=1;fontSize=16;" parent="6BMEeow9DPI3-waNV0ue-23" vertex="1">
          <mxGeometry y="270" width="230" height="30" as="geometry" />
        </mxCell>
        <mxCell id="6BMEeow9DPI3-waNV0ue-56" value="index_error" style="text;strokeColor=none;fillColor=none;align=left;verticalAlign=middle;spacingLeft=4;spacingRight=4;overflow=hidden;points=[[0,0.5],[1,0.5]];portConstraint=eastwest;rotatable=0;whiteSpace=wrap;html=1;fontSize=16;" parent="6BMEeow9DPI3-waNV0ue-23" vertex="1">
          <mxGeometry y="300" width="230" height="30" as="geometry" />
        </mxCell>
        <mxCell id="6BMEeow9DPI3-waNV0ue-57" value="index" style="text;strokeColor=none;fillColor=none;align=left;verticalAlign=middle;spacingLeft=4;spacingRight=4;overflow=hidden;points=[[0,0.5],[1,0.5]];portConstraint=eastwest;rotatable=0;whiteSpace=wrap;html=1;fontSize=16;" parent="6BMEeow9DPI3-waNV0ue-23" vertex="1">
          <mxGeometry y="330" width="230" height="30" as="geometry" />
        </mxCell>
        <mxCell id="6BMEeow9DPI3-waNV0ue-60" value="search" style="text;strokeColor=none;fillColor=none;align=left;verticalAlign=middle;spacingLeft=4;spacingRight=4;overflow=hidden;points=[[0,0.5],[1,0.5]];portConstraint=eastwest;rotatable=0;whiteSpace=wrap;html=1;fontSize=16;" parent="6BMEeow9DPI3-waNV0ue-23" vertex="1">
          <mxGeometry y="360" width="230" height="30" as="geometry" />
        </mxCell>
        <mxCell id="6BMEeow9DPI3-waNV0ue-63" value="autocompleter" style="text;strokeColor=none;fillColor=none;align=left;verticalAlign=middle;spacingLeft=4;spacingRight=4;overflow=hidden;points=[[0,0.5],[1,0.5]];portConstraint=eastwest;rotatable=0;whiteSpace=wrap;html=1;fontSize=16;" parent="6BMEeow9DPI3-waNV0ue-23" vertex="1">
          <mxGeometry y="390" width="230" height="30" as="geometry" />
        </mxCell>
        <mxCell id="6BMEeow9DPI3-waNV0ue-64" value="preferences" style="text;strokeColor=none;fillColor=none;align=left;verticalAlign=middle;spacingLeft=4;spacingRight=4;overflow=hidden;points=[[0,0.5],[1,0.5]];portConstraint=eastwest;rotatable=0;whiteSpace=wrap;html=1;fontSize=16;" parent="6BMEeow9DPI3-waNV0ue-23" vertex="1">
          <mxGeometry y="420" width="230" height="30" as="geometry" />
        </mxCell>
        <mxCell id="6BMEeow9DPI3-waNV0ue-65" value="image_proxy" style="text;strokeColor=none;fillColor=none;align=left;verticalAlign=middle;spacingLeft=4;spacingRight=4;overflow=hidden;points=[[0,0.5],[1,0.5]];portConstraint=eastwest;rotatable=0;whiteSpace=wrap;html=1;fontSize=16;" parent="6BMEeow9DPI3-waNV0ue-23" vertex="1">
          <mxGeometry y="450" width="230" height="30" as="geometry" />
        </mxCell>
        <mxCell id="6BMEeow9DPI3-waNV0ue-67" value="engine_descriptions" style="text;strokeColor=none;fillColor=none;align=left;verticalAlign=middle;spacingLeft=4;spacingRight=4;overflow=hidden;points=[[0,0.5],[1,0.5]];portConstraint=eastwest;rotatable=0;whiteSpace=wrap;html=1;fontSize=16;" parent="6BMEeow9DPI3-waNV0ue-23" vertex="1">
          <mxGeometry y="480" width="230" height="30" as="geometry" />
        </mxCell>
        <mxCell id="6BMEeow9DPI3-waNV0ue-68" value="stats" style="text;strokeColor=none;fillColor=none;align=left;verticalAlign=middle;spacingLeft=4;spacingRight=4;overflow=hidden;points=[[0,0.5],[1,0.5]];portConstraint=eastwest;rotatable=0;whiteSpace=wrap;html=1;fontSize=16;" parent="6BMEeow9DPI3-waNV0ue-23" vertex="1">
          <mxGeometry y="510" width="230" height="30" as="geometry" />
        </mxCell>
        <mxCell id="6BMEeow9DPI3-waNV0ue-72" value="robots" style="text;strokeColor=none;fillColor=none;align=left;verticalAlign=middle;spacingLeft=4;spacingRight=4;overflow=hidden;points=[[0,0.5],[1,0.5]];portConstraint=eastwest;rotatable=0;whiteSpace=wrap;html=1;fontSize=16;" parent="6BMEeow9DPI3-waNV0ue-23" vertex="1">
          <mxGeometry y="540" width="230" height="30" as="geometry" />
        </mxCell>
        <mxCell id="6BMEeow9DPI3-waNV0ue-73" value="opensearch" style="text;strokeColor=none;fillColor=none;align=left;verticalAlign=middle;spacingLeft=4;spacingRight=4;overflow=hidden;points=[[0,0.5],[1,0.5]];portConstraint=eastwest;rotatable=0;whiteSpace=wrap;html=1;fontSize=16;" parent="6BMEeow9DPI3-waNV0ue-23" vertex="1">
          <mxGeometry y="570" width="230" height="30" as="geometry" />
        </mxCell>
        <mxCell id="6BMEeow9DPI3-waNV0ue-74" value="config" style="text;strokeColor=none;fillColor=none;align=left;verticalAlign=middle;spacingLeft=4;spacingRight=4;overflow=hidden;points=[[0,0.5],[1,0.5]];portConstraint=eastwest;rotatable=0;whiteSpace=wrap;html=1;fontSize=16;" parent="6BMEeow9DPI3-waNV0ue-23" vertex="1">
          <mxGeometry y="600" width="230" height="30" as="geometry" />
        </mxCell>
        <mxCell id="6BMEeow9DPI3-waNV0ue-75" value="run" style="text;strokeColor=none;fillColor=none;align=left;verticalAlign=middle;spacingLeft=4;spacingRight=4;overflow=hidden;points=[[0,0.5],[1,0.5]];portConstraint=eastwest;rotatable=0;whiteSpace=wrap;html=1;fontSize=16;" parent="6BMEeow9DPI3-waNV0ue-23" vertex="1">
          <mxGeometry y="630" width="230" height="30" as="geometry" />
        </mxCell>
        <mxCell id="6BMEeow9DPI3-waNV0ue-83" style="edgeStyle=none;curved=1;rounded=0;orthogonalLoop=1;jettySize=auto;html=1;fontSize=12;startSize=8;endSize=8;" parent="WIyWlLk6GJQsqaUBKTNV-1" source="6BMEeow9DPI3-waNV0ue-79" edge="1">
          <mxGeometry relative="1" as="geometry">
            <mxPoint x="535" y="-470.00000000000045" as="targetPoint" />
          </mxGeometry>
        </mxCell>
        <mxCell id="6BMEeow9DPI3-waNV0ue-79" value="codelines,language=none" style="shape=parallelogram;perimeter=parallelogramPerimeter;whiteSpace=wrap;html=1;fixedSize=1;fontSize=16;" parent="WIyWlLk6GJQsqaUBKTNV-1" vertex="1">
          <mxGeometry x="280" y="-487.5" width="210" height="35" as="geometry" />
        </mxCell>
        <mxCell id="6BMEeow9DPI3-waNV0ue-81" style="edgeStyle=none;curved=1;rounded=0;orthogonalLoop=1;jettySize=auto;html=1;exitX=1;exitY=0.5;exitDx=0;exitDy=0;entryX=0;entryY=0.5;entryDx=0;entryDy=0;fontSize=12;startSize=8;endSize=8;" parent="WIyWlLk6GJQsqaUBKTNV-1" source="6BMEeow9DPI3-waNV0ue-28" target="6BMEeow9DPI3-waNV0ue-79" edge="1">
          <mxGeometry relative="1" as="geometry" />
        </mxCell>
        <mxCell id="6BMEeow9DPI3-waNV0ue-84" value="not" style="edgeStyle=none;curved=1;rounded=0;orthogonalLoop=1;jettySize=auto;html=1;exitX=0.5;exitY=1;exitDx=0;exitDy=0;fontSize=12;startSize=8;endSize=8;" parent="WIyWlLk6GJQsqaUBKTNV-1" source="6BMEeow9DPI3-waNV0ue-82" edge="1">
          <mxGeometry relative="1" as="geometry">
            <mxPoint x="590.2222222222222" y="-367.50000000000045" as="targetPoint" />
          </mxGeometry>
        </mxCell>
        <mxCell id="6BMEeow9DPI3-waNV0ue-82" value="language" style="rhombus;whiteSpace=wrap;html=1;fontSize=16;" parent="WIyWlLk6GJQsqaUBKTNV-1" vertex="1">
          <mxGeometry x="540" y="-510" width="100" height="80" as="geometry" />
        </mxCell>
        <mxCell id="TOdeB6g6YRnsOi8JCri--0" value="try" style="edgeStyle=none;curved=1;rounded=0;orthogonalLoop=1;jettySize=auto;html=1;exitX=0.5;exitY=1;exitDx=0;exitDy=0;entryX=0.5;entryY=0;entryDx=0;entryDy=0;fontSize=12;startSize=8;endSize=8;" edge="1" parent="WIyWlLk6GJQsqaUBKTNV-1" source="6BMEeow9DPI3-waNV0ue-85" target="6BMEeow9DPI3-waNV0ue-87">
          <mxGeometry relative="1" as="geometry" />
        </mxCell>
        <mxCell id="6BMEeow9DPI3-waNV0ue-85" value="language = &#39;text&#39;" style="rounded=0;whiteSpace=wrap;html=1;fontSize=16;" parent="WIyWlLk6GJQsqaUBKTNV-1" vertex="1">
          <mxGeometry x="525" y="-362.5" width="125" height="60" as="geometry" />
        </mxCell>
        <mxCell id="TOdeB6g6YRnsOi8JCri--2" style="edgeStyle=none;curved=1;rounded=0;orthogonalLoop=1;jettySize=auto;html=1;exitX=0.5;exitY=1;exitDx=0;exitDy=0;entryX=0.5;entryY=0;entryDx=0;entryDy=0;fontSize=12;startSize=8;endSize=8;" edge="1" parent="WIyWlLk6GJQsqaUBKTNV-1" source="6BMEeow9DPI3-waNV0ue-87" target="TOdeB6g6YRnsOi8JCri--1">
          <mxGeometry relative="1" as="geometry" />
        </mxCell>
        <mxCell id="TOdeB6g6YRnsOi8JCri--7" value="" style="edgeStyle=none;curved=1;rounded=0;orthogonalLoop=1;jettySize=auto;html=1;fontSize=12;startSize=8;endSize=8;" edge="1" parent="WIyWlLk6GJQsqaUBKTNV-1" source="6BMEeow9DPI3-waNV0ue-87" target="TOdeB6g6YRnsOi8JCri--6">
          <mxGeometry relative="1" as="geometry" />
        </mxCell>
        <mxCell id="6BMEeow9DPI3-waNV0ue-87" value="lexer = get_lexer_by_name(language, stripall=True)" style="rounded=0;whiteSpace=wrap;html=1;fontSize=16;" parent="WIyWlLk6GJQsqaUBKTNV-1" vertex="1">
          <mxGeometry x="462.5" y="-250" width="250" height="60" as="geometry" />
        </mxCell>
        <mxCell id="TOdeB6g6YRnsOi8JCri--4" value="" style="edgeStyle=none;curved=1;rounded=0;orthogonalLoop=1;jettySize=auto;html=1;fontSize=12;startSize=8;endSize=8;" edge="1" parent="WIyWlLk6GJQsqaUBKTNV-1" source="TOdeB6g6YRnsOi8JCri--1" target="TOdeB6g6YRnsOi8JCri--3">
          <mxGeometry relative="1" as="geometry" />
        </mxCell>
        <mxCell id="TOdeB6g6YRnsOi8JCri--1" value="except" style="rhombus;whiteSpace=wrap;html=1;fontSize=16;" vertex="1" parent="WIyWlLk6GJQsqaUBKTNV-1">
          <mxGeometry x="548" y="-160" width="80" height="80" as="geometry" />
        </mxCell>
        <mxCell id="TOdeB6g6YRnsOi8JCri--3" value="logg error" style="whiteSpace=wrap;html=1;fontSize=16;" vertex="1" parent="WIyWlLk6GJQsqaUBKTNV-1">
          <mxGeometry x="655" y="-150" width="120" height="60" as="geometry" />
        </mxCell>
        <mxCell id="TOdeB6g6YRnsOi8JCri--9" value="" style="edgeStyle=none;curved=1;rounded=0;orthogonalLoop=1;jettySize=auto;html=1;fontSize=12;startSize=8;endSize=8;" edge="1" parent="WIyWlLk6GJQsqaUBKTNV-1" source="TOdeB6g6YRnsOi8JCri--6" target="TOdeB6g6YRnsOi8JCri--8">
          <mxGeometry relative="1" as="geometry" />
        </mxCell>
        <mxCell id="TOdeB6g6YRnsOi8JCri--6" value="Code processing and html creation" style="whiteSpace=wrap;html=1;fontSize=16;rounded=0;" vertex="1" parent="WIyWlLk6GJQsqaUBKTNV-1">
          <mxGeometry x="770" y="-250" width="177.5" height="60" as="geometry" />
        </mxCell>
        <mxCell id="TOdeB6g6YRnsOi8JCri--8" value="return html_code" style="ellipse;whiteSpace=wrap;html=1;fontSize=16;rounded=0;" vertex="1" parent="WIyWlLk6GJQsqaUBKTNV-1">
          <mxGeometry x="990" y="-260" width="80" height="80" as="geometry" />
        </mxCell>
      </root>
    </mxGraphModel>
  </diagram>
</mxfile>
